<svg width="21" height="21" viewBox="0 0 21 21" fill="none" xmlns="http://www.w3.org/2000/svg">
<path d="M19.4844 2.49219H15.3828V0.929688C15.3828 0.822266 15.2949 0.734375 15.1875 0.734375H13.8203C13.7129 0.734375 13.625 0.822266 13.625 0.929688V2.49219H7.375V0.929688C7.375 0.822266 7.28711 0.734375 7.17969 0.734375H5.8125C5.70508 0.734375 5.61719 0.822266 5.61719 0.929688V2.49219H1.51562C1.0835 2.49219 0.734375 2.84131 0.734375 3.27344V19.4844C0.734375 19.9165 1.0835 20.2656 1.51562 20.2656H19.4844C19.9165 20.2656 20.2656 19.9165 20.2656 19.4844V3.27344C20.2656 2.84131 19.9165 2.49219 19.4844 2.49219ZM18.5078 18.5078H2.49219V9.23047H18.5078V18.5078ZM2.49219 7.57031V4.25H5.61719V5.42188C5.61719 5.5293 5.70508 5.61719 5.8125 5.61719H7.17969C7.28711 5.61719 7.375 5.5293 7.375 5.42188V4.25H13.625V5.42188C13.625 5.5293 13.7129 5.61719 13.8203 5.61719H15.1875C15.2949 5.61719 15.3828 5.5293 15.3828 5.42188V4.25H18.5078V7.57031H2.49219Z" fill="#E30613"/>
</svg>
