<svg width="25" height="25" viewBox="0 0 25 25" fill="none" xmlns="http://www.w3.org/2000/svg">
<path d="M1.97932e-05 23.1378L6.87332 16.3179C5.22163 14.3505 4.39798 11.8269 4.57373 9.27223C4.74948 6.71756 5.91109 4.32846 7.81691 2.60194C9.72273 0.87542 12.226 -0.0555968 14.8061 0.00257024C17.3861 0.0607373 19.8442 1.10361 21.669 2.91424C23.4938 4.72487 24.5449 7.16385 24.6035 9.72381C24.6621 12.2838 23.7238 14.7676 21.9837 16.6586C20.2437 18.5496 17.8359 19.7022 15.2612 19.8766C12.6865 20.0509 10.1431 19.2337 8.16025 17.5948L1.28694 24.4147L1.97932e-05 23.1378ZM22.7533 9.96586C22.7533 8.3584 22.2729 6.78704 21.3728 5.45049C20.4728 4.11393 19.1935 3.07221 17.6967 2.45706C16.2 1.84192 14.553 1.68096 12.9641 1.99456C11.3752 2.30816 9.91563 3.08223 8.77007 4.21888C7.62451 5.35552 6.84438 6.8037 6.52832 8.38027C6.21226 9.95685 6.37448 11.591 6.99445 13.0761C7.61442 14.5612 8.6643 15.8305 10.0113 16.7236C11.3584 17.6167 12.942 18.0933 14.5621 18.0933C16.7338 18.0909 18.8159 17.2339 20.3515 15.7102C21.8871 14.1865 22.7509 12.1207 22.7533 9.96586V9.96586Z" fill="#FFE843"/>
</svg>
