<svg width="64" height="62" viewBox="0 0 64 62" fill="none" xmlns="http://www.w3.org/2000/svg">
<path fill-rule="evenodd" clip-rule="evenodd" d="M6.07653 0.826354C5.74599 0.564367 5.35359 0.356549 4.92173 0.214763C4.48986 0.0729766 4.02699 2.76048e-09 3.55955 0C3.0921 -2.76048e-09 2.62923 0.0729766 2.19737 0.214763C1.7655 0.356549 1.3731 0.564367 1.04257 0.826354C0.712032 1.08834 0.449839 1.39936 0.270955 1.74167C0.0920707 2.08397 -3.48275e-09 2.45085 0 2.82135C3.48275e-09 3.19186 0.0920707 3.55873 0.270955 3.90103C0.449839 4.24334 0.712032 4.55436 1.04257 4.81635L29.483 27.3587C29.8133 27.6211 30.2056 27.8293 30.6375 27.9713C31.0694 28.1134 31.5324 28.1865 32 28.1865C32.4676 28.1865 32.9306 28.1134 33.3625 27.9713C33.7944 27.8293 34.1867 27.6211 34.517 27.3587L62.9574 4.81635C63.625 4.28724 64 3.56962 64 2.82135C64 2.07308 63.625 1.35546 62.9574 0.826354C62.2899 0.297248 61.3845 0 60.4405 0C59.4964 0 58.591 0.297248 57.9235 0.826354L32 21.3793L6.07653 0.826354ZM6.07653 34.6398C5.40898 34.1107 4.5036 33.8135 3.55955 33.8135C2.6155 33.8135 1.71011 34.1107 1.04257 34.6398C0.375022 35.169 0 35.8866 0 36.6348C0 37.3831 0.375022 38.1007 1.04257 38.6298L29.483 61.1722C29.8133 61.4346 30.2056 61.6428 30.6375 61.7848C31.0694 61.9269 31.5324 62 32 62C32.4676 62 32.9306 61.9269 33.3625 61.7848C33.7944 61.6428 34.1867 61.4346 34.517 61.1722L62.9574 38.6298C63.625 38.1007 64 37.3831 64 36.6348C64 35.8866 63.625 35.169 62.9574 34.6398C62.2899 34.1107 61.3845 33.8135 60.4405 33.8135C59.4964 33.8135 58.591 34.1107 57.9235 34.6398L32 55.1928L6.07653 34.6398Z" fill="#E30613"/>
</svg>
